<svg id="TOP_MENU_BAR" data-name="TOP MENU BAR" xmlns="http://www.w3.org/2000/svg" xmlns:xlink="http://www.w3.org/1999/xlink" width="375" height="75" viewBox="0 0 375 75">
  <defs>
    <linearGradient id="linear-gradient" x1="-1.933" y1="-1.413" x2="0.01" y2="0.156" gradientUnits="objectBoundingBox">
      <stop offset="0" stop-color="#0db0e3"/>
      <stop offset="1" stop-color="#8656a9"/>
    </linearGradient>
    <linearGradient id="linear-gradient-2" x1="-0.362" y1="-0.74" x2="1.607" y2="1.702" xlink:href="#linear-gradient"/>
    <linearGradient id="linear-gradient-3" x1="-0.458" y1="-2.948" x2="0.67" y2="1.058" xlink:href="#linear-gradient"/>
    <linearGradient id="linear-gradient-4" x1="-1.165" y1="-0.918" x2="1.633" y2="1.623" xlink:href="#linear-gradient"/>
    <linearGradient id="linear-gradient-5" x1="-1.63" y1="-2.636" x2="0.285" y2="0.164" xlink:href="#linear-gradient"/>
    <linearGradient id="linear-gradient-6" x1="0.341" y1="-0.212" x2="2.084" y2="6.24" xlink:href="#linear-gradient"/>
    <linearGradient id="linear-gradient-7" x1="0.046" y1="-0.797" x2="1.647" y2="3.949" xlink:href="#linear-gradient"/>
    <linearGradient id="linear-gradient-8" x1="-0.941" y1="-20.57" x2="0.262" y2="-2.975" xlink:href="#linear-gradient"/>
    <linearGradient id="linear-gradient-9" x1="-1.878" y1="-21.597" x2="-0.002" y2="-4.17" xlink:href="#linear-gradient"/>
    <linearGradient id="linear-gradient-10" x1="-5.896" y1="-11.568" x2="-1.596" y2="-3.454" xlink:href="#linear-gradient"/>
    <linearGradient id="linear-gradient-11" x1="-3.75" y1="-7.509" x2="1.895" y2="3.129" xlink:href="#linear-gradient"/>
    <linearGradient id="linear-gradient-12" x1="-1.733" y1="-3.706" x2="4.321" y2="7.709" xlink:href="#linear-gradient"/>
    <linearGradient id="linear-gradient-13" x1="-1.645" y1="-3.551" x2="4.503" y2="8.061" xlink:href="#linear-gradient"/>
    <linearGradient id="linear-gradient-14" x1="-0.763" y1="-1.876" x2="8.958" y2="16.427" xlink:href="#linear-gradient"/>
    <linearGradient id="linear-gradient-15" x1="0.041" y1="-0.21" x2="0.523" y2="0.821" xlink:href="#linear-gradient"/>
  </defs>
  <rect id="Rectangle_113" data-name="Rectangle 113" width="375" height="75" fill="none"/>
  <g id="Icon_feather-menu" data-name="Icon feather-menu" transform="translate(315.5 17.278)">
    <path id="Path_76" data-name="Path 76" d="M4.5,18H38.167" transform="translate(0 2.222)" fill="none" stroke="#fff" stroke-linecap="round" stroke-linejoin="round" stroke-width="3"/>
    <path id="Path_77" data-name="Path 77" d="M4.5,9H38.167" fill="none" stroke="#fff" stroke-linecap="round" stroke-linejoin="round" stroke-width="3"/>
    <path id="Path_78" data-name="Path 78" d="M4.5,27H38.167" transform="translate(0 4.444)" fill="none" stroke="#fff" stroke-linecap="round" stroke-linejoin="round" stroke-width="3"/>
  </g>
  <g id="Group_3" data-name="Group 3" transform="translate(20 13)">
    <path id="Path_31" data-name="Path 31" d="M674,715.958a2.013,2.013,0,0,0,1.766-1.78,1.975,1.975,0,0,0-1.493-2.144.946.946,0,0,1-.565-.382,1.856,1.856,0,0,1-.393-1.069,5.19,5.19,0,0,1,.116-1.487,4.759,4.759,0,0,1,.774-1.767,3.764,3.764,0,0,0,.685-3.052,3.967,3.967,0,0,0-3.922-3.257,3.875,3.875,0,0,0-.814.072,3.959,3.959,0,0,0-3.134,4.545,3.865,3.865,0,0,0,2.906,3.234,1.275,1.275,0,0,1,.291.105,5.647,5.647,0,0,1,2.007,1.947,1.834,1.834,0,0,1,.283.964.957.957,0,0,1-.191.716,1.949,1.949,0,0,0-.511,1.669,2.45,2.45,0,0,1,0,.617,2.8,2.8,0,0,1-2.113,2.353c-.174.039-.354.046-.531.073a2.146,2.146,0,1,0,2.472,1.733,2.194,2.194,0,0,1,0-.895A2.81,2.81,0,0,1,674,715.958Z" transform="translate(-627.349 -679.538)" fill="url(#linear-gradient)"/>
    <path id="Path_32" data-name="Path 32" d="M625.008,650.508a.708.708,0,0,1,.295.087,6.434,6.434,0,0,1,1.24.882,1,1,0,0,1,.268.36.627.627,0,0,1-.11.727,1.411,1.411,0,0,0-.341,1.337,1.5,1.5,0,1,0,2.919-.69,1.457,1.457,0,0,0-1.064-1.1.623.623,0,0,1-.369-.238.837.837,0,0,1-.145-.643,6.1,6.1,0,0,1,.533-1.542,1.852,1.852,0,0,1,.335-.484,4.314,4.314,0,0,0,1.215-3.105c-.009-.124-.008-.342-.041-.555a4.35,4.35,0,0,0-8.62,1.169A4.3,4.3,0,0,0,625.008,650.508Z" transform="translate(-596.112 -639.239)" fill="url(#linear-gradient-2)"/>
    <path id="Path_33" data-name="Path 33" d="M646.918,685.615a4.193,4.193,0,0,1-1.783.875,11.262,11.262,0,0,1-3.615.282,2.791,2.791,0,0,1-1.241-.327,2.449,2.449,0,0,0-1.078-.3,2.989,2.989,0,0,0-3.245,3.028,3.952,3.952,0,0,0,.052.552,2.988,2.988,0,0,0,3.257,2.383,2.888,2.888,0,0,0,2.3-1.528,2.417,2.417,0,0,1,.549-.669,10.746,10.746,0,0,1,3.568-2.017,3.69,3.69,0,0,1,2.724.037,1.995,1.995,0,1,0-.995-2.883A2.281,2.281,0,0,1,646.918,685.615Z" transform="translate(-606.234 -667.995)" fill="url(#linear-gradient-3)"/>
    <path id="Path_34" data-name="Path 34" d="M653.467,641.793a1.707,1.707,0,0,1,.992,1.8c0,.037,0,.076-.007.113a2.344,2.344,0,0,1-.79,1.569,2.824,2.824,0,0,0-1.036,2.532,2.929,2.929,0,0,0,2.938,2.654c.15-.01.3-.01.451-.034a2.938,2.938,0,0,0,.7-5.6,1.491,1.491,0,0,1-.578-.435,2.937,2.937,0,0,1-.625-1.371,1.335,1.335,0,0,1,.213-1.02q.293-.45.587-.9a2.158,2.158,0,0,0-.064-2.466,2.124,2.124,0,0,0-2.339-.776,2.079,2.079,0,0,0-1.526,1.875A2.139,2.139,0,0,0,653.467,641.793Z" transform="translate(-617.41 -636.466)" fill="url(#linear-gradient-4)"/>
    <path id="Path_35" data-name="Path 35" d="M654.527,720.908a2.733,2.733,0,0,0-2.72-2.449,1.423,1.423,0,0,1-.575-.119,2.277,2.277,0,0,1-1.389-1.826,1.5,1.5,0,0,1,.124-1.016,1.629,1.629,0,0,0,.161-.823,2.264,2.264,0,1,0-2.32,2.258.734.734,0,0,1,.3.051,2.408,2.408,0,0,1,1.423,1.685,1.643,1.643,0,0,1-.162,1.281,2.318,2.318,0,0,0-.306,1.163,2.738,2.738,0,1,0,5.46-.2Z" transform="translate(-612.802 -687.291)" fill="url(#linear-gradient-5)"/>
    <path id="Path_36" data-name="Path 36" d="M563.7,637.15a1.467,1.467,0,0,0,1.719,0,1.235,1.235,0,0,1,1.042-.214,2.713,2.713,0,0,1,1.827,1.308,2.477,2.477,0,0,0,4.623-1.219,3.239,3.239,0,0,0-.024-.338,2.479,2.479,0,0,0-4.188-1.432.884.884,0,0,1-.219.176,3.04,3.04,0,0,1-1.557.33,1.435,1.435,0,0,1-1.161-.646,1.371,1.371,0,0,0-1.285-.628,1.458,1.458,0,0,0-1.327,1.056A1.478,1.478,0,0,0,563.7,637.15Z" transform="translate(-556.616 -634.232)" fill="url(#linear-gradient-6)"/>
    <path id="Path_37" data-name="Path 37" d="M586.493,645.66a1.5,1.5,0,1,0,.705,1.714,1.524,1.524,0,0,1,.406-.693,3.5,3.5,0,0,1,3.831-.559,2.374,2.374,0,1,0-1.185-2.553,1.134,1.134,0,0,1-.093.325,3.485,3.485,0,0,1-2.857,1.948A1.306,1.306,0,0,1,586.493,645.66Z" transform="translate(-571.031 -639.124)" fill="url(#linear-gradient-7)"/>
    <path id="Path_38" data-name="Path 38" d="M597.665,766.124a1.249,1.249,0,0,0-.419-.04H585.154c-.094,0-.189,0-.282.006a.917.917,0,0,0-.034,1.815,2.927,2.927,0,0,0,.367.012h11.95c.085,0,.169,0,.254,0a.894.894,0,0,0,.87-.743A.913.913,0,0,0,597.665,766.124Z" transform="translate(-570.905 -723.842)" fill="url(#linear-gradient-8)"/>
    <path id="Path_39" data-name="Path 39" d="M600.616,775.272a1.207,1.207,0,0,0-.47-.076h-7.059a1.39,1.39,0,0,0-.308.027.9.9,0,0,0-.728.855.91.91,0,0,0,.669.932,1.343,1.343,0,0,0,.392.037h6.974a2.438,2.438,0,0,0,.282-.007.923.923,0,0,0,.248-1.768Z" transform="translate(-576.337 -730.048)" fill="url(#linear-gradient-9)"/>
    <path id="Path_40" data-name="Path 40" d="M688.989,754.224a1.989,1.989,0,1,0,1.991,1.993A1.967,1.967,0,0,0,688.989,754.224Z" transform="translate(-640.991 -715.767)" fill="url(#linear-gradient-10)"/>
    <path id="Path_41" data-name="Path 41" d="M653.214,683.06a1.517,1.517,0,1,0-1.529-1.526A1.518,1.518,0,0,0,653.214,683.06Z" transform="translate(-616.944 -665.244)" fill="url(#linear-gradient-11)"/>
    <path id="Path_42" data-name="Path 42" d="M599.86,659.623a1.413,1.413,0,1,0,2.827-.007,1.428,1.428,0,0,0-1.405-1.409A1.414,1.414,0,0,0,599.86,659.623Z" transform="translate(-581.655 -650.385)" fill="url(#linear-gradient-12)"/>
    <path id="Path_43" data-name="Path 43" d="M642.873,636.473a1.39,1.39,0,0,0,0-2.779,1.364,1.364,0,0,0-1.4,1.385A1.385,1.385,0,0,0,642.873,636.473Z" transform="translate(-609.993 -633.694)" fill="url(#linear-gradient-13)"/>
    <path id="Path_44" data-name="Path 44" d="M570.1,646.492a.88.88,0,0,0,1.761.017.88.88,0,1,0-1.761-.017Z" transform="translate(-561.39 -641.807)" fill="url(#linear-gradient-14)"/>
    <path id="Path_45" data-name="Path 45" d="M578.212,693.239l-4.892-4.618c-.26-.245-.522-.487-.782-.731a.777.777,0,0,0-.212.237,11.651,11.651,0,0,1-6.622,4.3c-.247.06-.5.094-.748.144-.1.02-.142-.016-.141-.114,0-.066,0-.132,0-.2.008-.65.022-1.3.025-1.95q.014-2.629.02-5.258c0-.352,0-.3.311-.3a5.087,5.087,0,0,0,.959-.026,2.242,2.242,0,0,0,1.8-2.279,2.217,2.217,0,0,0-2.74-2.069,2.178,2.178,0,0,0-1.7,2.1c-.008.235-.006.471,0,.707,0,.138-.034.214-.19.2a3.481,3.481,0,0,0-.424-.006c-.135.006-.186-.047-.182-.181.006-.217.006-.434,0-.65a2.228,2.228,0,1,0-2.251,2.21c.207-.005.415,0,.622,0,.244,0,.242,0,.241.247q-.017,3.618-.034,7.237c0,.39.056.376-.373.294a11.668,11.668,0,0,1-2.255-22.269,6.034,6.034,0,0,0,.719-.363c-.011-.035-.011-.058-.022-.068-.731-.624-1.463-1.246-2.192-1.873a.2.2,0,0,0-.255-.009c-.344.176-.7.333-1.033.523a.624.624,0,0,1-.73-.033c-1.407-.911-2.826-1.806-4.24-2.705-.194-.123-.2-.123-.362.014l-2.992,2.458c-.169.139-.173.143-.059.341.363.628.731,1.253,1.1,1.879.532.911,1.061,1.824,1.6,2.733a.65.65,0,0,1,.053.637c-.486,1.164-.957,2.334-1.426,3.505a.538.538,0,0,1-.449.372c-1.393.227-2.786.461-4.178.691-.362.06-.725.113-1.087.175-.214.036-.268.1-.279.32,0,.075,0,.151,0,.226q0,1.81,0,3.619c0,.447-.046.348.362.454q2.65.692,5.3,1.363a.643.643,0,0,1,.487.416c.448,1.119.9,2.235,1.37,3.345a.584.584,0,0,1-.092.668q-1.712,2.177-3.4,4.371c-.223.288-.2.2.026.446q1.429,1.508,2.866,3.008c.232.243.165.2.432.044.024-.015.048-.031.071-.047l3.651-2.471c.351-.238.7-.477,1.053-.713a.412.412,0,0,1,.421-.087c.357.16.714.318,1.078.479a.559.559,0,0,1-.233.154,1.387,1.387,0,0,0-.062,2.359,1.512,1.512,0,0,0,.862.214q6.078,0,12.156,0c.066,0,.132,0,.2,0a1.36,1.36,0,0,0,1.277-1.119,1.377,1.377,0,0,0-.862-1.545c-.088-.032-.181-.053-.271-.079l0-.093.815-.319a.57.57,0,0,1,.564.057c.078.054.16.1.24.15l4.559,2.942c.171.111.169.167.329-.053q1.12-1.544,2.243-3.087C578.37,693.388,578.367,693.385,578.212,693.239Zm-13.325-10.866a.849.849,0,0,1,.911-.671.842.842,0,0,1-.053,1.679c-.112.008-.226,0-.338,0-.174-.025-.4.067-.513-.066-.1-.116-.028-.326-.031-.494A1.8,1.8,0,0,1,564.887,682.373Zm-3.625.949c-.1.116-.3.046-.46.055a2.954,2.954,0,0,1-.394,0,.842.842,0,0,1,.057-1.682.839.839,0,0,1,.831.823c.005.112,0,.225,0,.372C561.284,683.016,561.364,683.21,561.262,683.322Zm2.222,2.415c-.012,1.318-.026,2.636-.036,3.954-.007.923-.006,1.846-.01,2.769,0,.261,0,.261-.264.265-.524.008-.524.008-.523-.514v-3.475h.048q0-1.851,0-3.7c0-.056,0-.113.005-.169s.028-.11.1-.11q.282,0,.565,0c.1,0,.114.078.114.158C563.484,685.191,563.487,685.465,563.484,685.738Z" transform="translate(-542.802 -655.448)" fill="url(#linear-gradient-15)"/>
  </g>
</svg>
