<svg xmlns="http://www.w3.org/2000/svg" viewBox="0 0 432.32 130.45"><path d="M13,91.59V124a6.4,6.4,0,0,1-6.41,6.38A6.43,6.43,0,0,1,0,124V65.53A32.7,32.7,0,1,1,13,91.59m0-26.06v.13a19.87,19.87,0,1,0,0-.13" style="fill:#59595b"/><path d="M134.73,65.53V91.07a6.31,6.31,0,0,1-6.54,6.51,6.87,6.87,0,0,1-6.27-6.51c-5.63,4.69-11.9,6.51-19.36,6.51-18.43,0-33.08-13.68-33.08-32a32.81,32.81,0,0,1,33.08-33c18.44,0,32.17,14.59,32.17,33m-12.81,0c0-10.94-8.37-20.19-19.36-20.19A20.5,20.5,0,0,0,82.3,65.53c0,11,9.28,19.28,20.26,19.28a19,19,0,0,0,19.36-19.28" style="fill:#59595b"/><path d="M208.2,65V91.2a6.47,6.47,0,1,1-12.94,0V65a19.88,19.88,0,0,0-39.75,0V91.2a6.48,6.48,0,1,1-12.95,0V65a32.82,32.82,0,0,1,65.64,0" style="fill:#59595b"/><path d="M252.26,38.82a6.55,6.55,0,0,1-6.54,6.52h-9.28v46a6.48,6.48,0,1,1-12.95,0v-46h-9.41a6.52,6.52,0,0,1-6.41-6.52,6.41,6.41,0,0,1,6.41-6.38h9.41V6.38a6.48,6.48,0,0,1,12.95,0V32.44h9.28a6.44,6.44,0,0,1,6.54,6.38" style="fill:#59595b"/><path d="M317.63,65a6.42,6.42,0,0,1-6.53,6.38H266a19.91,19.91,0,0,0,18.82,13.42,25.74,25.74,0,0,0,14.65-4.3c3-2,7.06-.13,8.63,3s-.13,6.65-3.14,8.6c-8.63,5.73-15.3,5.6-20.14,5.6a32.7,32.7,0,1,1,0-65.4c15.83,0,32.82,11.46,32.82,32.7M266,58.5h37.78c-2.74-9.12-11.11-13.29-19-13.29A20,20,0,0,0,266,58.5" style="fill:#59595b"/><path d="M364.83,38.82a6.55,6.55,0,0,1-6.54,6.52,19.84,19.84,0,0,0-19.88,19.8V91.33a6.47,6.47,0,1,1-12.94,0V65.14a32.78,32.78,0,0,1,32.82-32.7,6.44,6.44,0,0,1,6.54,6.38" style="fill:#59595b"/><path d="M399.23,32.83a32.74,32.74,0,0,0-32.82,32.7v.22a32,32,0,0,0,6.17,18.91h25.73a19.19,19.19,0,0,0,19.21-19.13V38.43A32.58,32.58,0,0,0,399.23,32.83ZM379.7,72.73a1.42,1.42,0,1,1-2.84,0V61.16a1.42,1.42,0,0,1,2.84,0Zm-.4-16.25a1.42,1.42,0,0,1-1,.4,1.4,1.4,0,0,1-1-2.41,1.48,1.48,0,0,1,1-.43,1.45,1.45,0,0,1,1,.43,1.46,1.46,0,0,1,0,2ZM395.75,72.7a1.42,1.42,0,1,1-2.84,0V66.93a4.37,4.37,0,0,0-8.73,0V72.7a1.42,1.42,0,1,1-2.84,0V66.93a7.21,7.21,0,0,1,14.41,0Zm8.86-1.38a4.34,4.34,0,0,0,3.68-2,1.46,1.46,0,0,1,2-.43,1.43,1.43,0,0,1,.4,2,7.19,7.19,0,1,1-6.06-11.11,7.25,7.25,0,0,1,6.26,3.59,1.44,1.44,0,0,1-.52,2,1.46,1.46,0,0,1-2-.51A4.37,4.37,0,0,0,400.25,67,4.4,4.4,0,0,0,404.61,71.32Z" style="fill:#59595b"/><path d="M419.67,40v25.5a21.35,21.35,0,0,1-21.36,21.29h-24A32.75,32.75,0,1,0,419.67,40Z" style="fill:#ff4438"/><path d="M50,130.07a1,1,0,0,1-.3-.74V115.79a1,1,0,0,1,1-1,1,1,0,0,1,1,1v13.54a1,1,0,0,1-.29.74,1,1,0,0,1-.75.3A1,1,0,0,1,50,130.07Z" style="fill:#ff4438"/><path d="M72,119.92a4.39,4.39,0,0,1,1.72,1.75,5.85,5.85,0,0,1,.62,2.78v4.92a1,1,0,0,1-1,1,1,1,0,0,1-1-1v-4.92A3.23,3.23,0,0,0,71.4,122a3.18,3.18,0,0,0-2.31-.83,3.5,3.5,0,0,0-1.53.33,2.79,2.79,0,0,0-1.08.92,2.32,2.32,0,0,0-.39,1.31v5.64a1.05,1.05,0,0,1-.28.73,1,1,0,0,1-.74.28,1,1,0,0,1-1-1v-8.92a.94.94,0,0,1,.29-.74,1,1,0,0,1,.73-.29,1,1,0,0,1,1,1v.22a4.42,4.42,0,0,1,1.52-1,5.06,5.06,0,0,1,1.88-.34A5.22,5.22,0,0,1,72,119.92Z" style="fill:#ff4438"/><path d="M94.11,119.92a4.39,4.39,0,0,1,1.72,1.75,5.85,5.85,0,0,1,.62,2.78v4.92a1,1,0,0,1-1,1,1,1,0,0,1-1-1v-4.92a3.23,3.23,0,0,0-.87-2.45,3.18,3.18,0,0,0-2.31-.83,3.5,3.5,0,0,0-1.53.33,2.79,2.79,0,0,0-1.08.92,2.32,2.32,0,0,0-.39,1.31v5.64a1.05,1.05,0,0,1-.28.73,1,1,0,0,1-.74.28,1,1,0,0,1-1-1v-8.92a.94.94,0,0,1,.29-.74,1,1,0,0,1,.73-.29,1,1,0,0,1,1,1v.22a4.42,4.42,0,0,1,1.52-1,5.06,5.06,0,0,1,1.88-.34A5.22,5.22,0,0,1,94.11,119.92Z" style="fill:#ff4438"/><path d="M110.43,129.74a5,5,0,0,1-2-2,6.23,6.23,0,0,1,0-5.74,5,5,0,0,1,2-2,5.65,5.65,0,0,1,2.86-.71,5.59,5.59,0,0,1,2.83.71,5.15,5.15,0,0,1,2,2,5.8,5.8,0,0,1,.71,2.88,5.91,5.91,0,0,1-.7,2.86,5.13,5.13,0,0,1-2,2,6.1,6.1,0,0,1-5.71,0Zm4.69-1.57a3.36,3.36,0,0,0,1.26-1.33,4.07,4.07,0,0,0,.45-1.93,4.18,4.18,0,0,0-.45-2,3.3,3.3,0,0,0-1.26-1.33,3.73,3.73,0,0,0-3.66,0,3.32,3.32,0,0,0-1.27,1.33,4.07,4.07,0,0,0-.46,2,4,4,0,0,0,.46,1.93,3.39,3.39,0,0,0,1.27,1.33,3.73,3.73,0,0,0,3.66,0Z" style="fill:#ff4438"/><path d="M138.55,119.9a.84.84,0,0,1,.14.47,1,1,0,0,1-.1.38l-4.24,8.94a1,1,0,0,1-.92.66,1,1,0,0,1-.56-.15,1.36,1.36,0,0,1-.4-.51l-4.24-8.94a.75.75,0,0,1-.08-.37.86.86,0,0,1,.56-.81.82.82,0,0,1,.42-.11.88.88,0,0,1,.46.14.91.91,0,0,1,.34.36l3.48,7.5,3.44-7.5a.81.81,0,0,1,.35-.36.93.93,0,0,1,.49-.14,1,1,0,0,1,.46.11A.93.93,0,0,1,138.55,119.9Z" style="fill:#ff4438"/><path d="M156.54,120.08a5.35,5.35,0,0,1,2,2,5.63,5.63,0,0,1,.73,2.83v4.46a1,1,0,0,1-1,1,1,1,0,0,1-1-1v-.74a4.89,4.89,0,0,1-1.7,1.33,4.82,4.82,0,0,1-2.16.49,4.88,4.88,0,0,1-2.61-.72,5,5,0,0,1-1.84-2,5.94,5.94,0,0,1-.67-2.83,5.62,5.62,0,0,1,.72-2.83,5.17,5.17,0,0,1,2-2,5.73,5.73,0,0,1,5.6,0Zm-1,8.08a3.56,3.56,0,0,0,1.27-1.34,4.22,4.22,0,0,0,0-3.83,3.49,3.49,0,0,0-6.17,0,4.14,4.14,0,0,0,0,3.83,3.58,3.58,0,0,0,1.28,1.34,3.59,3.59,0,0,0,3.62,0Z" style="fill:#ff4438"/><path d="M176.06,128.65a1,1,0,0,1,.25.72.91.91,0,0,1-.33.72,1.32,1.32,0,0,1-.85.28h-.36a3.28,3.28,0,0,1-1.79-.51,3.51,3.51,0,0,1-1.27-1.4,4.12,4.12,0,0,1-.46-2v-4.94h-.92a1,1,0,0,1-.68-.24.76.76,0,0,1-.26-.6.8.8,0,0,1,.26-.64,1,1,0,0,1,.68-.24h.92V117a1,1,0,0,1,1-1,1,1,0,0,1,1,1v2.88H175a1,1,0,0,1,.68.24.84.84,0,0,1,.26.64.79.79,0,0,1-.26.6,1,1,0,0,1-.68.24h-1.7v4.94a2,2,0,0,0,.44,1.34,1.34,1.34,0,0,0,1.08.54h.68A.78.78,0,0,1,176.06,128.65Z" style="fill:#ff4438"/><path d="M187.6,117.25a1.23,1.23,0,0,1-.39-.92,1.32,1.32,0,0,1,2.64,0,1.31,1.31,0,0,1-2.25.92Zm.2,12.83a1,1,0,0,1-.29-.73v-8.9a.94.94,0,0,1,.29-.74,1,1,0,0,1,.73-.29,1,1,0,0,1,1,1v8.9a1.05,1.05,0,0,1-.28.73,1,1,0,0,1-.74.29A1,1,0,0,1,187.8,130.08Z" style="fill:#ff4438"/><path d="M204,129.74a5,5,0,0,1-2-2,6.23,6.23,0,0,1,0-5.74,5,5,0,0,1,2-2,5.65,5.65,0,0,1,2.86-.71,5.59,5.59,0,0,1,2.83.71,5.15,5.15,0,0,1,2,2,5.8,5.8,0,0,1,.71,2.88,5.91,5.91,0,0,1-.7,2.86,5.13,5.13,0,0,1-2,2,6.1,6.1,0,0,1-5.71,0Zm4.69-1.57a3.36,3.36,0,0,0,1.26-1.33,4.07,4.07,0,0,0,.45-1.93,4.18,4.18,0,0,0-.45-2,3.3,3.3,0,0,0-1.26-1.33,3.73,3.73,0,0,0-3.66,0,3.32,3.32,0,0,0-1.27,1.33,4.07,4.07,0,0,0-.46,2,4,4,0,0,0,.46,1.93,3.39,3.39,0,0,0,1.27,1.33,3.73,3.73,0,0,0,3.66,0Z" style="fill:#ff4438"/><path d="M231.76,119.92a4.27,4.27,0,0,1,1.72,1.75,5.74,5.74,0,0,1,.62,2.78v4.92a1,1,0,0,1-1,1,1,1,0,0,1-1-1v-4.92a3.23,3.23,0,0,0-.87-2.45,3.18,3.18,0,0,0-2.31-.83,3.5,3.5,0,0,0-1.53.33,2.79,2.79,0,0,0-1.08.92,2.32,2.32,0,0,0-.39,1.31v5.64a1,1,0,0,1-.28.73,1,1,0,0,1-.74.28,1,1,0,0,1-1-1v-8.92a1,1,0,0,1,.29-.74,1,1,0,0,1,.73-.29,1,1,0,0,1,1,1v.22a4.62,4.62,0,0,1,1.52-1,5.14,5.14,0,0,1,1.88-.34A5.19,5.19,0,0,1,231.76,119.92Z" style="fill:#ff4438"/><path d="M265.61,128.65a1,1,0,0,1,.25.72.91.91,0,0,1-.33.72,1.3,1.3,0,0,1-.85.28h-.36a3.3,3.3,0,0,1-1.79-.51,3.58,3.58,0,0,1-1.27-1.4,4.24,4.24,0,0,1-.46-2v-4.94h-.92a1,1,0,0,1-.68-.24.79.79,0,0,1-.26-.6.84.84,0,0,1,.26-.64,1,1,0,0,1,.68-.24h.92V117a1,1,0,0,1,1-1,1,1,0,0,1,1,1v2.88h1.7a1,1,0,0,1,.68.24.8.8,0,0,1,.26.64.76.76,0,0,1-.26.6,1,1,0,0,1-.68.24h-1.7v4.94a2.1,2.1,0,0,0,.44,1.34,1.36,1.36,0,0,0,1.08.54H265A.77.77,0,0,1,265.61,128.65Z" style="fill:#ff4438"/><path d="M284.78,119.92a4.27,4.27,0,0,1,1.72,1.75,5.74,5.74,0,0,1,.62,2.78v4.92a1,1,0,0,1-1,1,1,1,0,0,1-1-1v-4.92a3.23,3.23,0,0,0-.87-2.45,3.18,3.18,0,0,0-2.31-.83,3.5,3.5,0,0,0-1.53.33,2.79,2.79,0,0,0-1.08.92,2.32,2.32,0,0,0-.39,1.31v5.64a1,1,0,0,1-.28.73,1,1,0,0,1-.74.28,1,1,0,0,1-1-1v-13.6a1,1,0,0,1,.29-.74,1,1,0,0,1,.73-.28,1,1,0,0,1,1,1v4.9a4.62,4.62,0,0,1,1.52-1,5.14,5.14,0,0,1,1.88-.34A5.19,5.19,0,0,1,284.78,119.92Z" style="fill:#ff4438"/><path d="M306.77,120.08a5.21,5.21,0,0,1,2,2,5.53,5.53,0,0,1,.73,2.83v4.46a1,1,0,0,1-1,1,1,1,0,0,1-1-1v-.74a4.71,4.71,0,0,1-1.7,1.33,4.76,4.76,0,0,1-2.16.49,4.88,4.88,0,0,1-2.61-.72,5.12,5.12,0,0,1-1.84-2,6.06,6.06,0,0,1-.67-2.83,5.62,5.62,0,0,1,.72-2.83,5.24,5.24,0,0,1,2-2,5.53,5.53,0,0,1,2.81-.73A5.38,5.38,0,0,1,306.77,120.08Zm-1,8.08a3.48,3.48,0,0,0,1.27-1.34,4.22,4.22,0,0,0,0-3.83,3.4,3.4,0,0,0-1.27-1.36,3.65,3.65,0,0,0-3.62,0,3.57,3.57,0,0,0-1.28,1.36,4.14,4.14,0,0,0,0,3.83,3.66,3.66,0,0,0,1.28,1.34,3.59,3.59,0,0,0,3.62,0Z" style="fill:#ff4438"/><path d="M326.29,128.65a1,1,0,0,1,.25.72.91.91,0,0,1-.33.72,1.3,1.3,0,0,1-.85.28H325a3.3,3.3,0,0,1-1.79-.51,3.58,3.58,0,0,1-1.27-1.4,4.24,4.24,0,0,1-.46-2v-4.94h-.92a1,1,0,0,1-.68-.24.79.79,0,0,1-.26-.6.84.84,0,0,1,.26-.64,1,1,0,0,1,.68-.24h.92V117a1,1,0,0,1,1-1,1,1,0,0,1,1,1v2.88h1.7a1,1,0,0,1,.68.24.8.8,0,0,1,.26.64.76.76,0,0,1-.26.6,1,1,0,0,1-.68.24h-1.7v4.94a2.1,2.1,0,0,0,.44,1.34,1.36,1.36,0,0,0,1.08.54h.68A.77.77,0,0,1,326.29,128.65Z" style="fill:#ff4438"/><path d="M362.44,129.42a.93.93,0,0,1-.27.68,1,1,0,0,1-.73.27,1,1,0,0,1-.9-.5l-3.44-5.52h-2.92v5a1,1,0,0,1-.29.74,1,1,0,0,1-.75.3,1,1,0,0,1-1-1V115.79a1,1,0,0,1,.3-.75,1,1,0,0,1,.74-.29h3.6a5.49,5.49,0,0,1,2.65.62,4.43,4.43,0,0,1,1.82,1.74,4.92,4.92,0,0,1,.65,2.56,4.46,4.46,0,0,1-2.68,4.18l3.06,4.92A1.15,1.15,0,0,1,362.44,129.42Zm-5.7-7a3.27,3.27,0,0,0,2.24-.76,2.53,2.53,0,0,0,.88-2,2.88,2.88,0,0,0-.88-2.17,3.13,3.13,0,0,0-2.24-.83h-2.56v5.75Z" style="fill:#ff4438"/><path d="M375.14,129.74a5.08,5.08,0,0,1-2-2,6.23,6.23,0,0,1,0-5.74,5,5,0,0,1,2-2,5.67,5.67,0,0,1,2.86-.71,5.53,5.53,0,0,1,2.83.71,5,5,0,0,1,2,2,5.7,5.7,0,0,1,.71,2.88,5.8,5.8,0,0,1-.7,2.86,5,5,0,0,1-1.95,2,5.68,5.68,0,0,1-2.85.71A5.78,5.78,0,0,1,375.14,129.74Zm4.69-1.57a3.36,3.36,0,0,0,1.26-1.33,4.07,4.07,0,0,0,.45-1.93,4.18,4.18,0,0,0-.45-2,3.3,3.3,0,0,0-1.26-1.33,3.73,3.73,0,0,0-3.66,0A3.39,3.39,0,0,0,374.9,123a4.19,4.19,0,0,0-.46,2,4.08,4.08,0,0,0,.46,1.93,3.46,3.46,0,0,0,1.27,1.33,3.73,3.73,0,0,0,3.66,0Z" style="fill:#ff4438"/><path d="M396.09,129.9a3.12,3.12,0,0,1-1.07-1.32,4.72,4.72,0,0,1-.38-1.91V115.75a.94.94,0,0,1,.28-.72,1,1,0,0,1,.72-.28,1,1,0,0,1,.72.28.94.94,0,0,1,.28.72v10.92a2.31,2.31,0,0,0,.28,1.21.82.82,0,0,0,.72.49h.5a.82.82,0,0,1,.65.28,1,1,0,0,1,.25.72.87.87,0,0,1-.38.72,1.65,1.65,0,0,1-1,.28h0A2.72,2.72,0,0,1,396.09,129.9Z" style="fill:#ff4438"/><path d="M410.59,129.9a3.12,3.12,0,0,1-1.07-1.32,4.72,4.72,0,0,1-.38-1.91V115.75a.94.94,0,0,1,.28-.72,1,1,0,0,1,.72-.28,1,1,0,0,1,.72.28.94.94,0,0,1,.28.72v10.92a2.31,2.31,0,0,0,.28,1.21.82.82,0,0,0,.72.49h.5a.82.82,0,0,1,.65.28,1,1,0,0,1,.25.72.87.87,0,0,1-.38.72,1.65,1.65,0,0,1-1,.28h0A2.72,2.72,0,0,1,410.59,129.9Z" style="fill:#ff4438"/><path d="M425.46,130a4.81,4.81,0,0,1-1.88-1.11.83.83,0,0,1-.26-.61.92.92,0,0,1,.4-.78,1.21,1.21,0,0,1,.7-.28,1.06,1.06,0,0,1,.76.36,3.2,3.2,0,0,0,1.14.73,4.4,4.4,0,0,0,1.62.31,3.47,3.47,0,0,0,1.77-.38,1.17,1.17,0,0,0,.63-1,1.21,1.21,0,0,0-.62-1,6,6,0,0,0-2.1-.68q-3.84-.75-3.84-3.16a2.49,2.49,0,0,1,.58-1.66,3.41,3.41,0,0,1,1.52-1,5.8,5.8,0,0,1,2-.34,6.12,6.12,0,0,1,2.33.42,4,4,0,0,1,1.63,1.15,1,1,0,0,1,.26.65.81.81,0,0,1-.34.62,1,1,0,0,1-.56.16,1.34,1.34,0,0,1-.94-.39,3,3,0,0,0-1.06-.64,4.17,4.17,0,0,0-1.36-.19,3.22,3.22,0,0,0-1.51.31,1,1,0,0,0-.59.87,1.13,1.13,0,0,0,.2.67,1.84,1.84,0,0,0,.76.5,9.33,9.33,0,0,0,1.62.44,7,7,0,0,1,3.09,1.23,2.52,2.52,0,0,1,.91,2,3,3,0,0,1-.5,1.67,3.31,3.31,0,0,1-1.47,1.18,5.84,5.84,0,0,1-2.33.43A7.68,7.68,0,0,1,425.46,130Z" style="fill:#ff4438"/></svg>